<svg xml:space="preserve" viewBox="0 0 880 624" width="100%" y="0px" x="0px" xmlns:xlink="http://www.w3.org/1999/xlink" xmlns="http://www.w3.org/2000/svg" id="Layer_1" version="1.1">
<path d="M716.304382,359.937683 
	C710.927246,393.711090 700.528076,425.319702 683.890137,454.770721 
	C659.779724,497.448883 626.798889,531.594299 584.907776,557.044128 
	C550.829407,577.747498 513.905029,591.244568 474.309448,594.928833 
	C368.895813,604.737488 282.330780,568.850647 217.214203,484.568146 
	C188.319778,447.169128 171.274002,404.293213 165.024323,357.542694 
	C156.865372,296.509857 166.636826,238.290894 196.888916,184.348923 
	C235.557083,115.400391 293.120239,69.091263 369.808075,49.904316 
	C468.797272,25.137674 557.233765,47.840420 632.582031,117.108902 
	C675.559753,156.618805 701.665222,206.096558 713.710938,263.148956 
	C719.688171,291.459198 719.146912,319.984314 717.422363,348.589935 
	C717.202637,352.234070 716.700012,355.861145 716.304382,359.937683 
M658.782349,455.312164 
	C680.197266,420.976044 693.216492,383.798828 696.850525,343.399414 
	C699.145630,317.884308 698.279236,292.535919 693.055603,267.425812 
	C681.817749,213.404770 655.931641,167.535645 615.548035,130.007324 
	C570.389465,88.041687 516.673462,65.352058 455.323669,61.549114 
	C416.076599,59.116276 378.001617,65.615662 341.608185,80.948647 
	C304.743408,96.480209 272.974457,119.207199 246.817749,149.418259 
	C213.865829,187.477753 193.333252,231.389206 186.047623,281.405121 
	C181.881241,310.007477 182.235153,338.483978 187.802658,366.792206 
	C198.330688,420.322357 222.764053,466.538544 262.573151,504.022003 
	C327.412811,565.073730 404.323242,587.564026 491.432068,570.812927 
	C563.245361,557.003235 618.393860,516.970337 658.782349,455.312164 
z" stroke="none" opacity="1.000000" fill="#000000"></path>
<path d="M605.222351,370.876038 
	C608.876099,370.264435 609.550720,372.473846 609.252563,375.326996 
	C608.812744,379.535614 610.638977,381.156525 614.737854,380.608093 
	C616.381592,380.388184 618.051331,380.338104 619.711609,380.270599 
	C626.545410,379.992767 627.542053,378.788666 626.542236,371.951172 
	C624.782959,359.921082 617.137634,353.055359 604.698669,352.335114 
	C601.189514,352.131927 601.189514,352.131958 601.026062,349.322083 
	C594.611084,352.171295 587.832214,353.998962 581.245911,357.736877 
	C578.410400,359.123199 576.030884,360.180359 573.651306,361.237549 
	C570.156860,361.867462 569.277588,360.560883 568.377502,356.922455 
	C566.575500,349.637909 560.071350,354.668579 555.816284,353.473999 
	C552.853760,352.642334 551.163513,354.377991 551.325134,357.673431 
	C551.455566,360.332672 551.307312,363.004517 551.338806,365.670105 
	C551.360168,367.477570 550.953857,369.023773 549.043945,369.645203 
	C546.754333,370.390259 544.573120,372.940094 542.172363,371.483490 
	C539.948914,370.134521 540.971497,367.202240 540.924866,364.951050 
	C540.650146,351.676941 543.272766,353.540344 528.743225,353.327209 
	C525.522644,353.279968 524.229675,354.609344 524.282837,357.780426 
	C524.380493,363.610809 524.196472,369.446869 524.346619,375.274994 
	C524.429993,378.509766 523.014099,380.309448 519.998230,380.977386 
	C516.519104,381.747986 516.338562,378.852966 515.624329,376.782501 
	C513.398438,370.329987 511.488861,363.761353 509.064606,357.386871 
	C507.525696,353.340332 508.708191,351.748779 512.742065,350.920593 
	C537.178711,345.903503 561.587280,340.749359 586.001526,335.623413 
	C588.920593,335.010529 591.817200,334.291077 594.638184,333.139404 
	C585.693726,334.618378 576.742920,336.059692 567.806091,337.583435 
	C541.093018,342.138062 514.344177,346.500366 487.692993,351.393250 
	C474.177185,353.874634 460.746216,355.474976 447.055023,353.474304 
	C445.191284,353.201935 443.023712,353.215942 442.658020,355.601013 
	C442.089508,359.309204 439.452301,359.824738 436.554657,360.254028 
	C434.580994,360.546417 432.578918,360.765625 430.658569,361.276917 
	C424.684265,362.867584 420.265137,361.816589 415.184479,357.197601 
	C402.627655,345.781769 380.850647,352.340057 375.338135,368.460571 
	C373.912445,372.629852 370.326080,371.714355 367.469757,372.033447 
	C364.585846,372.355682 364.923431,369.701782 364.630615,367.754883 
	C363.251160,358.583435 357.686249,354.078094 345.962769,353.453369 
	C337.820282,353.019501 329.637115,353.387726 321.473236,353.297119 
	C318.481049,353.263885 317.293365,354.568115 317.334015,357.516144 
	C317.419037,363.680115 317.008392,369.869415 317.434265,376.004395 
	C317.784912,381.055328 314.872955,381.918365 311.111450,382.118286 
	C306.614105,382.357422 307.774689,378.828156 307.731995,376.442230 
	C307.390625,357.359711 291.345459,346.906982 273.464783,354.071930 
	C264.113037,357.819244 260.797211,365.272705 260.384155,374.578430 
	C260.199615,378.736084 260.292755,382.909454 260.365295,387.073883 
	C260.408722,389.566620 259.701721,391.068420 256.905640,391.540894 
	C242.974075,393.895142 229.066101,396.390076 215.158615,398.884521 
	C212.711243,399.323456 211.877563,397.838776 211.266739,395.986023 
	C206.308640,380.946777 202.648743,365.605164 200.718307,349.877228 
	C200.009781,344.104767 199.431732,338.313354 198.936874,332.518402 
	C198.315659,325.243530 198.785690,324.752533 205.954941,324.752472 
	C254.111572,324.752258 302.268219,324.759521 350.424835,324.783142 
	C380.585022,324.797943 410.745239,324.886963 440.905396,324.869690 
	C503.200348,324.834045 565.495300,324.745209 627.790222,324.688202 
	C643.571167,324.673767 659.352112,324.688599 675.133057,324.706146 
	C682.834839,324.714691 682.695862,324.726593 682.420837,332.566162 
	C681.638916,354.854645 677.576538,376.574615 670.121399,397.520081 
	C645.824097,465.784088 600.034668,513.964172 533.457886,542.422607 
	C523.494995,546.681213 513.148560,549.873779 502.704010,552.730042 
	C500.819977,553.245239 498.952942,554.031006 496.837769,553.665771 
	C495.916168,551.403137 497.728668,550.244446 498.761871,548.949951 
	C529.211975,510.797913 559.726074,472.696991 590.142334,434.518097 
	C592.473267,431.592285 594.614441,430.617554 598.577698,431.317474 
	C615.985718,434.391693 628.508057,422.139404 626.686951,404.408051 
	C626.458008,402.178650 625.606689,401.143158 623.448303,400.775238 
	C622.047668,400.536438 620.410156,400.771729 618.888245,398.888214 
	C622.970337,393.544647 627.150330,388.072906 631.330322,382.601196 
	C631.096436,382.381989 630.862549,382.162781 630.628662,381.943573 
	C628.327820,384.386383 626.069885,386.871460 623.716675,389.262665 
	C619.569458,393.476715 616.036255,398.118744 610.915527,401.614136 
	C607.779419,403.754822 606.547302,409.060883 603.349182,412.214661 
	C601.955750,413.588776 601.059692,415.510529 598.653809,416.250305 
	C596.811707,414.158478 596.735596,411.565247 596.733398,408.949310 
	C596.726501,400.784363 596.914551,392.612671 596.632629,384.457245 
	C596.488708,380.294006 597.440918,376.939789 601.226929,373.911987 
	C602.864380,372.591553 604.043396,371.733795 605.222351,370.876038 
z" stroke="none" opacity="1.000000" fill="#000000"></path>
<path d="M398.782257,508.822632 
	C383.147125,519.344666 367.769897,529.606262 352.521606,540.056030 
	C349.684723,542.000122 347.276215,542.098022 344.229065,540.771240 
	C318.624329,529.622437 295.678925,514.453308 275.227661,495.470642 
	C274.373169,494.677551 273.472809,493.903320 273.456390,492.094604 
	C277.863037,490.043060 282.417419,487.786224 287.077606,485.774506 
	C328.808197,467.760162 370.570221,449.818604 412.279663,431.755524 
	C416.082397,430.108704 421.086853,431.928223 423.945770,427.507507 
	C424.438507,426.745514 425.954102,427.253052 426.666779,427.976044 
	C431.551331,432.931427 437.658813,430.211426 443.202545,430.461975 
	C446.739868,430.621796 445.882355,426.826904 446.493866,424.661316 
	C447.192322,422.187836 445.998718,418.670135 448.732361,417.409424 
	C452.225647,415.798370 456.273651,416.575378 460.052979,416.996887 
	C462.106689,417.225922 462.088013,419.262787 462.350647,420.934601 
	C463.869843,430.605377 463.889709,430.602234 473.765533,430.623840 
	C482.077301,430.642029 482.094788,430.638550 480.483673,422.571198 
	C479.637939,418.336578 478.893890,414.069885 477.783173,409.903229 
	C476.664062,405.705017 477.448242,402.862976 482.043915,401.715668 
	C483.918060,401.247803 485.515625,399.649567 488.353088,400.557404 
	C488.353088,408.327850 488.629730,416.300293 488.251495,424.241547 
	C488.016846,429.168427 489.292267,431.027130 494.570160,430.774994 
	C506.005310,430.228577 504.840240,432.248749 504.918365,420.201904 
	C504.970245,412.205780 504.917999,404.208923 504.982422,396.212952 
	C504.998108,394.263306 504.704773,391.743988 507.239594,391.249420 
	C510.082550,390.694702 510.122894,393.512054 510.690125,395.230530 
	C513.713379,404.389954 516.479248,413.635864 519.604675,422.759155 
	C520.657898,425.833679 520.069397,427.523468 517.352661,429.338654 
	C477.888947,455.706635 438.495148,482.179352 398.782257,508.822632 
z" stroke="none" opacity="1.000000" fill="#000000"></path>
<path d="M564.542236,430.629089 
	C568.245972,430.746399 568.760254,428.703766 568.738831,426.053467 
	C568.683655,419.224976 568.719543,412.395691 568.719177,405.566742 
	C568.718811,397.766632 570.282104,395.609802 578.426147,392.462799 
	C579.968811,394.473053 579.191528,396.868500 579.303772,399.062469 
	C579.625000,405.339447 578.512817,411.712921 580.879089,417.844727 
	C581.978394,420.693359 583.210266,423.523926 585.643860,425.331116 
	C588.880615,427.734711 588.134094,429.635895 585.867615,432.213257 
	C570.255005,449.967499 554.770569,467.834320 539.189148,485.616089 
	C518.890747,508.780945 498.516388,531.879333 478.255859,555.077148 
	C476.501312,557.086060 474.694946,558.266968 472.022339,558.639771 
	C454.455292,561.089844 436.845581,560.914001 419.222443,559.625122 
	C402.569763,558.407227 386.307007,555.050171 370.337524,550.241089 
	C368.511353,549.691162 366.303131,549.715820 365.239960,547.647705 
	C365.583374,545.889465 367.100403,545.296753 368.270660,544.445129 
	C419.033569,507.506195 469.866974,470.663574 520.495483,433.541473 
	C525.324280,430.000916 530.194153,430.626038 535.178345,430.759308 
	C539.604492,430.877625 541.018311,429.410400 540.850830,425.029755 
	C540.588196,418.158875 543.015259,415.425690 550.707458,412.865753 
	C552.001099,416.914459 551.356873,421.069885 551.258667,425.109802 
	C551.161316,429.113800 552.335327,431.062988 556.607239,430.664368 
	C559.083557,430.433289 561.599976,430.631195 564.542236,430.629089 
z" stroke="none" opacity="1.000000" fill="#000000"></path>
<path d="M359.710205,393.296234 
	C357.863770,392.209534 356.299042,391.340424 353.624756,389.855072 
	C359.969818,387.607727 362.932343,381.750488 369.509277,381.054749 
	C373.181488,380.666290 374.357758,381.565338 374.315491,385.100189 
	C374.217957,393.262299 374.376465,401.427460 374.276672,409.589508 
	C374.233246,413.138153 374.922241,416.547852 375.739014,419.930786 
	C377.337341,426.550720 381.838562,430.326294 388.390289,431.665558 
	C387.999847,434.273376 386.032166,434.271149 384.636688,434.818024 
	C345.266693,450.245605 305.870239,465.605652 266.518768,481.080078 
	C263.527222,482.256439 261.590240,481.670929 259.554626,479.359344 
	C242.799362,460.332916 229.337753,439.217255 218.991089,416.082306 
	C217.473068,412.688049 217.880157,411.108032 221.935730,410.355072 
	C233.209732,408.261963 244.407959,405.760986 255.637405,403.427307 
	C256.917664,403.161255 258.205200,402.596039 259.659790,403.517761 
	C261.145081,406.350922 260.017639,409.609131 260.569580,412.686768 
	C263.081116,426.691772 275.059357,434.394379 289.584259,431.260284 
	C301.615479,428.664246 307.562317,421.395050 307.686737,409.104187 
	C307.718781,405.939056 307.694458,402.773407 307.704163,399.608002 
	C307.726837,392.216187 308.755981,391.320770 317.339996,391.910461 
	C317.339996,398.615479 317.337708,405.394318 317.340759,412.173157 
	C317.342896,417.004547 317.413574,421.836945 317.334198,426.666931 
	C317.290009,429.354950 318.345734,430.453064 321.122864,430.681366 
	C334.800690,431.805695 334.794373,431.873047 334.795715,418.145111 
	C334.796204,412.980499 334.733734,407.814575 334.833099,402.651825 
	C334.881805,400.120483 334.145203,396.914673 338.300201,396.767242 
	C341.971252,396.637024 345.301758,397.004150 346.547058,401.430939 
	C347.476044,404.733185 347.124512,408.044708 347.190155,411.358154 
	C347.282501,416.021454 347.241608,420.687469 347.345947,425.350372 
	C347.425781,428.917999 349.008667,430.889191 352.920349,430.701874 
	C356.860046,430.513275 360.815826,430.660370 364.654388,430.660370 
	C364.654388,421.366302 364.752838,412.738403 364.611298,404.114410 
	C364.544312,400.033295 363.502533,396.186554 359.710205,393.296234 
z" stroke="none" opacity="1.000000" fill="#000000"></path>
<path d="M448.773499,195.079346 
	C448.858551,186.701340 448.862488,186.536499 456.795197,186.726364 
	C469.423615,187.028610 482.109039,185.589111 494.675903,187.589203 
	C506.687469,189.500916 512.996582,196.579468 514.361206,208.626160 
	C515.151733,215.604935 515.085754,222.581985 514.994385,229.562134 
	C514.831055,242.036606 515.243652,254.503418 514.556702,266.991302 
	C513.676636,282.990479 502.430389,291.713806 486.673370,292.180298 
	C476.359772,292.485626 466.029297,292.250305 455.706573,292.209259 
	C449.125061,292.183105 448.798065,291.842407 448.793274,284.975739 
	C448.772552,255.172684 448.776581,225.369629 448.773499,195.079346 
M475.316620,240.499939 
	C475.315613,249.802887 475.399078,259.107025 475.267181,268.408112 
	C475.221741,271.612701 476.344513,272.879028 479.613586,272.789673 
	C485.503876,272.628754 488.593353,269.471436 488.627808,262.711487 
	C488.707367,247.096207 488.646240,231.480255 488.670013,215.864609 
	C488.672852,214.007004 488.445953,212.220108 487.672577,210.526825 
	C485.723724,206.259949 481.892761,205.704651 477.992645,206.174805 
	C473.889404,206.669434 475.423309,210.248337 475.380829,212.589005 
	C475.218201,221.556732 475.316406,230.529221 475.316620,240.499939 
z" stroke="none" opacity="1.000000" fill="#000000"></path>
<path d="M336.941040,201.009537 
	C336.916748,186.690842 336.916748,186.690842 350.542877,186.692413 
	C363.347382,186.693893 363.349579,186.693893 363.346954,199.624039 
	C363.342743,220.451706 362.961609,241.287949 363.438873,262.104553 
	C363.877869,281.253113 350.959106,294.495117 329.426086,293.558685 
	C312.858398,292.838165 303.409851,286.254486 299.424255,273.442047 
	C298.385406,270.102478 297.762695,266.672485 297.765442,263.137756 
	C297.783508,239.810760 297.895142,216.482605 297.672089,193.157730 
	C297.624298,188.160233 299.069733,186.143250 304.191040,186.619537 
	C308.155701,186.988235 312.182037,186.691498 316.180939,186.695053 
	C324.216095,186.702194 324.233978,186.703430 324.239899,194.523788 
	C324.257080,217.184280 324.256104,239.844788 324.271149,262.505280 
	C324.272278,264.170441 324.205688,265.852966 324.412018,267.497131 
	C324.885681,271.271667 327.131256,272.961365 330.926636,272.841888 
	C334.481842,272.729950 336.602539,271.190033 336.791901,267.482819 
	C336.876862,265.820068 336.959259,264.154724 336.959534,262.490540 
	C336.962830,242.162750 336.950684,221.834976 336.941040,201.009537 
z" stroke="none" opacity="1.000000" fill="#000000"></path>
<path d="M562.967407,186.689148 
	C574.355103,186.693604 574.394409,186.685806 576.504456,197.314667 
	C582.384033,226.931900 588.237915,256.554291 594.060791,286.182709 
	C594.403625,287.926788 594.918030,289.745880 593.827026,292.142670 
	C586.133301,292.142670 578.201477,292.202118 570.271545,292.108307 
	C567.723755,292.078217 567.090454,290.048676 566.831299,287.949341 
	C566.404114,284.489136 565.937317,281.029938 565.658386,277.556580 
	C565.435303,274.778290 564.297607,273.489868 561.324951,273.300415 
	C548.858887,272.506104 548.582275,272.665894 547.294983,285.267883 
	C546.618835,291.886841 546.278442,292.216644 539.739502,292.238220 
	C533.472412,292.258881 527.205200,292.242706 520.496948,292.242706 
	C520.655029,284.410309 522.665649,277.706024 523.931091,270.934387 
	C528.748596,245.155014 533.833801,219.425644 538.823486,193.678452 
	C540.178345,186.687546 540.185608,186.686737 547.491577,186.683792 
	C552.485352,186.681778 557.479187,186.687073 562.967407,186.689148 
M560.564392,253.541656 
	C562.625549,252.983963 562.224121,251.503128 562.043213,249.948746 
	C560.541199,237.043808 559.096802,224.132156 557.501404,210.042648 
	C556.950134,211.997375 556.623718,212.768280 556.523743,213.567520 
	C555.123352,224.765564 553.677795,235.958847 552.406067,247.171768 
	C551.668701,253.673599 551.910400,253.785080 560.564392,253.541656 
z" stroke="none" opacity="1.000000" fill="#000000"></path>
<path d="M412.855774,262.292114 
	C410.546112,256.760559 406.114685,253.695480 401.895569,250.455795 
	C396.087219,245.995804 389.988312,241.882202 384.436951,237.126297 
	C373.141449,227.449265 370.514130,211.787216 377.443115,198.553955 
	C380.778107,192.184692 386.271912,188.645569 392.875031,186.785843 
	C402.554718,184.059631 412.327637,184.341278 421.881042,187.389832 
	C432.069458,190.641068 438.199585,199.130020 438.262451,210.030975 
	C438.342590,223.921661 439.751038,221.775253 426.896881,221.978699 
	C425.731201,221.997147 424.565155,221.992401 423.399261,221.992752 
	C414.678711,221.995392 414.678711,221.994934 413.609100,213.209167 
	C412.869385,207.133102 410.270111,204.725891 405.006958,205.242676 
	C399.922546,205.741913 397.234985,210.471008 399.593445,215.015076 
	C401.887054,219.434189 405.825226,222.360535 409.685150,225.244583 
	C416.219757,230.127106 422.900787,234.803772 429.058136,240.185211 
	C438.683685,248.597839 442.661835,262.471649 438.657349,274.206512 
	C434.878906,285.279053 424.049164,292.674377 410.810547,293.350098 
	C404.814789,293.656097 398.853638,293.740509 392.987427,292.213043 
	C379.924377,288.811615 372.638580,279.335236 372.686127,265.600677 
	C372.725220,254.299042 371.475189,255.808792 382.465240,255.684738 
	C386.295441,255.641510 390.129181,255.776398 393.956604,255.666611 
	C396.908051,255.581970 398.288513,256.806732 398.172485,259.784424 
	C398.107697,261.446533 398.218567,263.114685 398.212769,264.779999 
	C398.200531,268.287292 398.821411,271.629486 402.407043,273.141174 
	C405.277222,274.351196 408.361725,274.218658 410.927612,272.155457 
	C414.107178,269.598785 414.267578,266.244598 412.855774,262.292114 
z" stroke="none" opacity="1.000000" fill="#000000"></path>
<path d="M396.685760,375.640289 
	C400.356873,375.107788 404.126038,372.169159 405.972198,377.921204 
	C406.444061,379.391449 419.820404,379.266296 420.897125,377.959259 
	C421.374268,377.380096 421.736847,376.407867 421.628662,375.693176 
	C420.866516,370.656647 424.059174,369.641174 427.993835,368.832733 
	C440.580597,366.246582 440.575470,366.171631 438.129700,378.892792 
	C436.059662,389.659790 434.018585,400.432861 431.851440,411.180420 
	C430.724884,416.767426 428.852478,418.063263 421.716003,418.210052 
	C421.716003,410.607758 421.432312,402.987579 421.815643,395.401123 
	C422.071472,390.337250 420.417114,388.450775 415.322449,388.927124 
	C411.030243,389.328430 406.675659,389.082275 402.348663,389.083923 
	C399.823090,389.084869 397.785400,389.978302 398.331940,392.788116 
	C398.921844,395.820740 395.746216,400.515411 400.921051,401.627960 
	C406.738983,402.878754 404.708618,407.057587 404.843811,410.290680 
	C404.998688,413.994659 404.601929,417.811310 399.970001,419.002045 
	C396.258423,419.956146 392.966522,418.003876 392.273285,413.956024 
	C391.745300,410.872803 391.851624,407.666199 391.832733,404.513519 
	C391.785828,396.691284 391.883759,388.868042 391.808929,381.046265 
	C391.778534,377.871857 392.922333,375.921631 396.685760,375.640289 
z" stroke="none" opacity="1.000000" fill="#000000"></path>
<path d="M488.329651,373.003052 
	C488.329590,378.810455 488.372375,384.119354 488.311218,389.427002 
	C488.270752,392.937775 479.846344,398.769714 476.661011,397.488403 
	C475.278992,396.932465 475.048676,395.505096 474.791656,394.187012 
	C472.891052,384.439453 471.034576,374.682831 469.049622,364.952454 
	C468.379272,361.666290 469.311615,360.012299 472.806244,359.502167 
	C476.730286,358.929382 480.576385,357.832245 484.465027,357.003815 
	C486.941498,356.476257 488.300018,357.421631 488.299164,360.063019 
	C488.297821,364.209991 488.317535,368.356995 488.329651,373.003052 
z" stroke="none" opacity="1.000000" fill="#000000"></path>
<path d="M544.827148,410.675659 
	C543.668884,411.274658 542.981995,412.183014 541.336792,411.696930 
	C540.399536,409.091034 540.973022,406.109070 540.935974,403.221771 
	C540.850586,396.571991 540.896362,389.920288 540.912476,383.269440 
	C540.931030,375.594543 542.208374,374.197296 550.361023,372.910248 
	C551.919617,374.151001 551.291687,375.943756 551.308777,377.496094 
	C551.387817,384.644836 550.943359,391.825836 551.484863,398.934509 
	C551.911377,404.533936 550.109192,408.210297 544.827148,410.675659 
z" stroke="none" opacity="1.000000" fill="#000000"></path>
<path d="M573.410400,361.443085 
	C576.030884,360.180359 578.410400,359.123199 580.977478,357.920807 
	C582.979370,357.904175 585.576538,357.736023 583.587646,360.651794 
	C579.282715,366.963135 579.245483,374.031036 579.308167,381.200897 
	C579.370544,388.323761 577.308044,390.843384 569.977661,392.882355 
	C568.071167,391.646484 568.705811,389.661896 568.692871,387.943451 
	C568.646729,381.805115 568.935059,375.655151 568.643738,369.531128 
	C568.461243,365.693634 569.663696,363.133026 573.410400,361.443085 
z" stroke="none" opacity="1.000000" fill="#000000"></path>
<path d="M287.930786,386.082214 
	C277.789276,387.936066 277.768677,387.936005 277.797699,377.889252 
	C277.805359,375.233093 277.780426,372.550140 278.133850,369.928467 
	C278.564270,366.735901 280.535004,364.846649 283.884216,364.829285 
	C287.157806,364.812317 289.651611,366.461487 289.777100,369.701599 
	C289.987701,375.139252 292.030853,380.838745 287.930786,386.082214 
z" stroke="none" opacity="1.000000" fill="#000000"></path>
<path d="M290.091858,399.437042 
	C290.153107,403.855042 290.296570,407.828003 290.132629,411.788239 
	C289.969238,415.736084 288.694427,419.213898 283.932404,419.162476 
	C279.153931,419.110870 278.121490,415.514404 277.849030,411.630096 
	C277.698975,409.490784 277.792450,407.333588 277.796265,405.184479 
	C277.806366,399.467468 283.004761,395.581360 288.637787,397.105682 
	C289.524506,397.345612 289.842682,398.156189 290.091858,399.437042 
z" stroke="none" opacity="1.000000" fill="#000000"></path>
<path d="M454.037537,404.149658 
	C451.651489,404.045929 449.996948,403.726593 449.761658,401.217407 
	C449.518433,398.623108 453.512512,372.680267 454.977539,369.522888 
	C458.050537,374.698151 456.996857,380.335541 458.059082,385.493958 
	C458.957977,389.859406 458.636932,394.475525 459.529755,398.842926 
	C460.493011,403.555084 458.330658,404.452576 454.037537,404.149658 
z" stroke="none" opacity="1.000000" fill="#000000"></path>
<path d="M336.285400,376.897827 
	C334.512970,375.159668 334.868683,373.263855 334.869812,371.474487 
	C334.871460,368.804565 334.617493,365.943390 338.600342,365.773621 
	C342.530823,365.606110 346.081238,366.090332 347.067078,370.717865 
	C347.672852,373.561249 347.388367,376.030579 343.550690,376.407318 
	C341.263245,376.631897 339.050446,377.591217 336.285400,376.897827 
z" stroke="none" opacity="1.000000" fill="#000000"></path>
<path d="M605.394348,370.626160 
	C604.043396,371.733795 602.864380,372.591553 601.443115,373.609924 
	C599.716309,374.017059 597.728882,375.595245 597.035095,373.115051 
	C596.237793,370.264832 596.817383,367.421936 599.585388,365.687317 
	C601.872375,364.254181 604.388550,364.116760 606.538452,365.912018 
	C608.808899,367.807892 606.569641,369.025665 605.394348,370.626160 
z" stroke="none" opacity="1.000000" fill="#000000"></path>
<path d="M524.276611,388.409912 
	C524.067688,391.498108 524.851257,394.275421 523.484497,397.442230 
	C520.617249,394.259277 520.170532,390.702606 519.449890,387.322357 
	C519.113525,385.744568 520.437195,384.942596 521.817383,384.748169 
	C524.424194,384.381012 524.096252,386.412933 524.276611,388.409912 
z" stroke="none" opacity="1.000000" fill="#000000"></path>
</svg>